<svg xmlns="http://www.w3.org/2000/svg" xmlns:xlink="http://www.w3.org/1999/xlink" width="600" height="209" viewBox="0 0 600 209">
  <defs>
    <linearGradient id="linear-gradient" y1="0.5" x2="1" y2="0.5" gradientUnits="objectBoundingBox">
      <stop offset="0.01" stop-color="#002246"/>
      <stop offset="0.14" stop-color="#004388"/>
      <stop offset="0.38" stop-color="#005dc2"/>
      <stop offset="1" stop-color="#007bff"/>
    </linearGradient>
  </defs>
  <g id="Group_3" data-name="Group 3" transform="translate(1.751 220)">
    <rect id="Rectangle_1" data-name="Rectangle 1" width="600" height="209" transform="translate(-1.751 -220)" fill="#e5e5e5"/>
    <rect id="Rectangle_2" data-name="Rectangle 2" width="600" height="83.79" transform="translate(-1.751 -220)" fill="#231f20" opacity="0.14"/>
    <rect id="Rectangle_3" data-name="Rectangle 3" width="600" height="80.086" transform="translate(-1.751 -220)" fill="url(#linear-gradient)"/>
    <text id="REGISTRADO" transform="translate(156.428 -50.491)" fill="#007bff" font-size="18.5" font-family="Roboto-Medium, Roboto" font-weight="500"><tspan x="0" y="0">REGISTRADO</tspan></text>
    <text id="Plataforma_de_comunicación_social_San_Juan" data-name="Plataforma de comunicación social San Juan" transform="translate(64.197 -168.675)" fill="#fff" font-size="18" font-family="Roboto-Bold, Roboto" font-weight="700"><tspan x="0" y="0">Plataforma de comunicación social San Juan</tspan></text>
    <text id="USUARIO" transform="translate(63.353 -66.565)" fill="#004388" font-size="48.485" font-family="Roboto-Black, Roboto" font-weight="800"><tspan x="0" y="0">USUARIO</tspan></text>
    <path id="Path_1" data-name="Path 1" d="M577.629-24.349c-3.186,6.4-23.739,2.741-54.031,3.637-28.161.834-32.746.227-25.382-2.869,8.61-3.62-1.806-5.751,28.278-7.251,13.007-.648,13.664,2.79,30.606,2.562C571.637-28.466,578.44-25.979,577.629-24.349Z" fill="#406dd3" opacity="0.42"/>
    <g id="Group_2" data-name="Group 2">
      <path id="Path_2" data-name="Path 2" d="M502.006-110.3l1.575-6.272,4.093-.019.5,12.913-.062,3.365,1.9-2.771a22.612,22.612,0,0,1,9.278-7.782h0a1.019,1.019,0,0,1,1.418,1.142l-1.993,9.259L504.34-95.09a3.513,3.513,0,0,1-4.728-3.626Z" fill="#6fbbef"/>
      <path id="Path_3" data-name="Path 3" d="M542.191-39.144c-10.373-8.047-18.928-21.463-18.928-21.463l12.312-14.035c7.218-2.795,7.912-7.432,7.272-10.941-1.047-5.737-7.913-8.61-13.478-6.869A14.67,14.67,0,0,0,520.1-83.89c-2.515,5.727-14.088,27.193-10.714,30.2,4.709,4.2,30.578,17.631,30.578,17.631s.945.386-.582,2.081a88.634,88.634,0,0,0-5.355,7.733c-1.532,2.453,2.444,2.858,4.922.6,1.678-1.528,5.542-5.128,7.862-7.293a1.928,1.928,0,0,0-.247-3.012C545.551-36.627,544.127-37.642,542.191-39.144Z" fill="#9cf"/>
      <path id="Path_4" data-name="Path 4" d="M534.808-116.614s4.883,25.332,5.668,26.329-21.382,1.943-21.382,1.943,1.724-3.922.44-10.373-3.595-7.8-.993-11,8.68-5.625,8.68-5.625Z" fill="#5479fc"/>
      <path id="Path_5" data-name="Path 5" d="M525.34-109.746c2.133.221,4.471,1.21,4.234,4.529-.113,1.572-.351,7.116-6.628,9.185-4.411,1.454-25.5,5.913-25.5,5.913s-9.037,3.74-8.5-3.272,4.605-18.068,4.605-18.068l3.113-.271.375,13.3L520.7-109.079A9.9,9.9,0,0,1,525.34-109.746Z" fill="#9cf"/>
      <path id="Path_6" data-name="Path 6" d="M527.221-115.337l2.24-9.364,5.7-.821-.352,8.909Z" fill="#9cf"/>
      <path id="Path_7" data-name="Path 7" d="M528.6-121.57l-.38,2.055,6.722-3.067.219-2.941-5.7.821Z" fill="#6fbbef"/>
      <path id="Path_8" data-name="Path 8" d="M538.8-129.361c-2.309,5.726-3.468,5.077-11.382,6.894a16.159,16.159,0,0,1-3.039.039,1.2,1.2,0,0,1-1.129-1.043,9.524,9.524,0,0,1-.054-1.193c-.016-1.659-.042-4.443.134-6.244.135-1.387.007-3.135,1.061-4.263,4.031-4.316,7.406-9.067,11.385-7.462S541.108-135.087,538.8-129.361Z" fill="#9cf"/>
      <path id="Path_9" data-name="Path 9" d="M531.666-143.065s-5.34,5.27-.045,6.82c1.689.495,3.392,2.864,1.1,5.691-2.061,2.542,2.638,5.262,2.492,6.2a.147.147,0,0,0,.236.139l1.787-1.381h0a14.928,14.928,0,0,0,3.172-6.018h0a13.11,13.11,0,0,0,.425-3.2c.012-1.665-.082-4.029-.662-4.971C539.233-141.311,536.033-144.552,531.666-143.065Z" fill="#2655db"/>
      <path id="Path_10" data-name="Path 10" d="M531.666-143.065l-3.992,2.058s-3.33,2.191-2.478,2.257,4.675-.03,4.675-.03Z" fill="#2655db"/>
      <path id="Path_11" data-name="Path 11" d="M538.456-141.229s15.413-8.5,13.867-2.648c-3.5,13.239,19.309,2.589,5.7,30.425-.133.274-.393.407-.507.124l-.56-1.378c-1.4-3.452,2.06-9.991-5.549-9.643-4.63.212-8.116-.451-4.645-9.712,1.137-3.032-7.167-4.974-7.167-4.974Z" fill="#2655db"/>
      <path id="Path_12" data-name="Path 12" d="M539.426-141.878l1.618,3.249s.4,2.541-.135,1.877-3-4.757-3-4.757S537.921-143.4,539.426-141.878Z" fill="#d279fc"/>
      <path id="Path_13" data-name="Path 13" d="M524.391-135.171l-2.437,1.959a.539.539,0,0,0,.055.878l2.189,1.346Z" fill="#9cf"/>
      <path id="Path_14" data-name="Path 14" d="M523.661-60.767,535.974-74.8c7.218-2.795,7.912-7.432,7.272-10.941-1.047-5.737-7.913-8.61-13.479-6.869A14.675,14.675,0,0,0,520.5-84.05c-1.257,2.863-4.779,9.662-7.564,16.12S523.661-60.767,523.661-60.767Z" fill="#17e5aa"/>
      <path id="Path_15" data-name="Path 15" d="M538.525-91.106s6.87,6.96.957,12.984c-4.7,4.785-11.844,6.619-16.426,5.672a47.508,47.508,0,0,1-7.942-2.326l22.13,5.64s3.876-1.491,4.112.026c.19,1.22.537,10.158.666,13.614a3.239,3.239,0,0,1-1.261,2.724c-.69.517-1.45.7-1.725-.627-.449-2.163-1.639-10.052-1.639-10.052s-.366-2.087-4.344-2.113c-8.356-.055-27.853.2-27.853.2l-3.067-.218a8.768,8.768,0,0,1-6.641-3.729c-1.431-2.094-1.887-4.844,2.014-7.471,7.8-5.254,22.626-12.038,22.626-12.038S531.738-96.266,538.525-91.106Z" fill="#9cf"/>
      <path id="Path_16" data-name="Path 16" d="M538.788-91.294s6.87,6.961.957,12.985c-4.7,4.784-11.845,6.808-16.427,5.86a38.057,38.057,0,0,1-7.941-2.515s-8.455-7.43-3.878-9.742c4.919-2.486,8.9-4.306,8.9-4.306S532-96.454,538.788-91.294Z" fill="#0ffec1"/>
      <path id="Path_17" data-name="Path 17" d="M525.233-72.152a20.689,20.689,0,0,1-9.74-2.622" fill="none" stroke="#6fbbef" stroke-linecap="round" stroke-miterlimit="10" stroke-width="1.252"/>
      <path id="Path_18" data-name="Path 18" d="M541.522-69.108l.744,14.259-.582,1.293-1.9,1.109a3.424,3.424,0,0,0,2.463.016,1.927,1.927,0,0,0,.882-1.024,4.953,4.953,0,0,0,.445-2.2l-.268-13.818S541.419-70.056,541.522-69.108Z" fill="#5078d1"/>
      <path id="Path_19" data-name="Path 19" d="M535.734-69.9s5.527-.722,5.788.8c.21,1.22.6,10.158.745,13.614a3.126,3.126,0,0,1-1.391,2.723c-.761.516-1.6.7-1.9-.628-.5-2.164-1.817-10.054-1.817-10.054a15.524,15.524,0,0,0-1.459-.767C535.7-64.154,535.734-69.9,535.734-69.9Z" fill="#2655db"/>
      <g id="Group_1" data-name="Group 1">
        <rect id="Rectangle_4" data-name="Rectangle 4" width="5.491" height="5.678" transform="matrix(0.948, -0.32, 0.32, 0.948, 471.584, -178.018)" fill="#d279fc"/>
        <path id="Path_20" data-name="Path 20" d="M517.111-140.732a20.765,20.765,0,0,0-20.23-14.324l-14.257-42.265-10.555,3.56-7.284,2.457,2.852,8.454,7.284-2.457,11.4,33.812a20.764,20.764,0,0,0-7.421,23.651c3.679,10.908,15.215,16.866,25.765,13.308S520.79-129.823,517.111-140.732Zm-14.618,19.74a3.912,3.912,0,0,1-4.913-2.538,3.912,3.912,0,0,1,2.372-4.994,3.911,3.911,0,0,1,4.912,2.537A3.911,3.911,0,0,1,502.493-120.992Z" fill="#d279fc"/>
      </g>
      <path id="Path_21" data-name="Path 21" d="M541.979-39.927l-3.056,3.769s.754.573-.014,2.084c-1.033,2.034-4.672,7.238-5.086,7.9-1.532,2.453,2.634,2.859,5.112.6,1.678-1.529,5.542-5.129,7.862-7.294.909-.848,1.116-2.548.083-3.241C545.868-36.784,544.173-38.837,541.979-39.927Z" fill="#2655db"/>
      <path id="Path_22" data-name="Path 22" d="M496.675-111.345a49.576,49.576,0,0,0,2.343-4.493c.094-1.1-1.037-.1-1.283.249s-.1-2.16.5-3.565c.613-1.438-2.359-3.254-3.408.213-.473,1.563-1.272,7.482-1.272,7.482Z" fill="#9cf"/>
      <path id="Path_23" data-name="Path 23" d="M527.221-115.337l.49-2.555,7.2.047-.1,1.231Z" fill="#5479fc"/>
    </g>
  </g>
</svg>
