<svg xmlns="http://www.w3.org/2000/svg" xmlns:xlink="http://www.w3.org/1999/xlink" width="600" height="110.186" viewBox="0 0 600 110.186">
  <defs>
    <linearGradient id="linear-gradient" y1="0.5" x2="1" y2="0.5" gradientUnits="objectBoundingBox">
      <stop offset="0.01" stop-color="#002246"/>
      <stop offset="0.14" stop-color="#004388"/>
      <stop offset="0.38" stop-color="#005dc2"/>
      <stop offset="1" stop-color="#007bff"/>
    </linearGradient>
  </defs>
  <g id="Group_8" data-name="Group 8" transform="translate(0.197 -258.905)">
    <rect id="Rectangle_5" data-name="Rectangle 5" width="600" height="110.186" transform="translate(-0.197 258.905)" fill="url(#linear-gradient)"/>
    <g id="Group_7" data-name="Group 7">
      <g id="Group_4" data-name="Group 4">
        <path id="Path_24" data-name="Path 24" d="M308.964,310.153v8.684l-6.16-8.684h-2.592v15h3.364v-8.729l6.251,8.729h2.5v-15Z" fill="#fff" fill-rule="evenodd"/>
        <path id="Path_25" data-name="Path 25" d="M296.059,325.156h3.409l-5.432-15h-2.842l-6,15h3.523l.955-2.637h5.41l.978,2.637Zm-3.5-10.3,1.432,4.479h-3.137Z" fill="#fff" fill-rule="evenodd"/>
        <path id="Path_26" data-name="Path 26" d="M279.962,309.653c-3.637,0-5.569,1.568-5.569,4.387s1.909,3.91,4.569,4.956c1.637.614,2.933,1.113,2.933,2.2,0,1.068-1.092,1.273-2.319,1.273a13.3,13.3,0,0,1-4.455-.864l-.773,3a15.279,15.279,0,0,0,5.364,1.046c3.751,0,5.706-1.728,5.706-4.66,0-2.319-1.228-3.569-4.274-4.774-2.614-1.022-3.182-1.25-3.182-2.068,0-1,.841-1.455,2.2-1.455a11.145,11.145,0,0,1,3.751.75l.818-3A14.6,14.6,0,0,0,279.962,309.653Z" fill="#fff" fill-rule="evenodd"/>
      </g>
      <g id="Group_5" data-name="Group 5">
        <path id="Path_27" data-name="Path 27" d="M322.911,310.153h-3.546v9.1c0,2.41-1.068,2.956-2.909,3.956l1.409,2.705c1.591-.659,5.046-2.41,5.046-5.615Z" fill="#fff" fill-rule="evenodd"/>
        <path id="Path_28" data-name="Path 28" d="M347.967,325.156h3.41l-5.434-15H343.1l-6,15h3.523l.955-2.637h5.41l.978,2.637Zm-3.5-10.3,1.432,4.479h-3.137Z" fill="#fff" fill-rule="evenodd"/>
        <path id="Path_29" data-name="Path 29" d="M337.209,310.153h-3.546v9.32c0,1.91-.863,3.114-2.728,3.114-1.841,0-2.7-1.2-2.7-3.114v-9.32h-3.547v9.32c0,3.751,2.114,6.024,6.251,6.024,4.183,0,6.274-2.273,6.274-6.024Z" fill="#fff" fill-rule="evenodd"/>
        <path id="Path_30" data-name="Path 30" d="M361.051,310.153v8.684l-6.16-8.684H352.3v15h3.364v-8.729l6.251,8.729h2.5v-15Z" fill="#fff" fill-rule="evenodd"/>
      </g>
      <path id="Path_31" data-name="Path 31" d="M276.832,303.433v1.008h1.083v1.341a6.086,6.086,0,0,1-.916.083,1.34,1.34,0,0,1-1.45-1.524v-.958a1.347,1.347,0,0,1,1.541-1.517,4.665,4.665,0,0,1,1.508.267l.259-.908a4.806,4.806,0,0,0-1.733-.292c-1.733,0-2.616.825-2.616,2.375v1.108a2.238,2.238,0,0,0,2.441,2.366,4.832,4.832,0,0,0,2.008-.4v-2.949Zm5.147,3.349a2.122,2.122,0,0,0,2.316-2.1v-1.674a2.326,2.326,0,0,0-4.624,0v1.674a2.12,2.12,0,0,0,2.308,2.1Zm0-.975a1.185,1.185,0,0,1-1.266-1.2v-1.533a1.168,1.168,0,0,1,1.266-1.166,1.141,1.141,0,0,1,1.275,1.166v1.533a1.158,1.158,0,0,1-1.275,1.2Zm6.655-2.158a1.391,1.391,0,0,0,.5-1.133c0-.883-.725-1.408-1.7-1.408h-2.383v5.5h2.458a1.674,1.674,0,0,0,1.891-1.616,1.489,1.489,0,0,0-.766-1.342Zm-1.2-1.533a.621.621,0,0,1,.683.6.579.579,0,0,1-.608.575h-1.416v-1.175Zm.075,3.483h-1.416v-1.408h1.516a.7.7,0,0,1,.766.691c0,.409-.283.717-.866.717Zm3.472-4.491H289.94v5.5h1.041v-5.5Zm1.865,4.491v-1.3h2.391v-.941h-2.391v-1.242h2.64v-1.008H291.8v5.5h3.757V305.6Zm6.8,1.008h1.208l-1.383-2.15a1.739,1.739,0,0,0-.758-3.349h-2.4v5.5h1.042v-1.983h1.041l1.25,1.983Zm-2.291-4.491h1.358a.72.72,0,0,1,.816.717.733.733,0,0,1-.816.775h-1.358v-1.492Zm7.3-1.008v3.441l-2.608-3.441h-.716v5.5h1.008v-3.458l2.624,3.458h.7v-5.5Zm4.064,5.674a2.122,2.122,0,0,0,2.316-2.1v-1.674a2.326,2.326,0,0,0-4.624,0v1.674a2.119,2.119,0,0,0,2.308,2.1Zm0-.975a1.185,1.185,0,0,1-1.267-1.2v-1.533a1.168,1.168,0,0,1,1.267-1.166,1.141,1.141,0,0,1,1.274,1.166v1.533a1.157,1.157,0,0,1-1.274,1.2Zm7.429-4.7h-2.174v5.5h2.207a2.08,2.08,0,0,0,2.225-2.05v-1.416a2.1,2.1,0,0,0-2.258-2.033Zm1.217,3.308a1.142,1.142,0,0,1-1.184,1.183h-1.166v-3.483h1.166a1.163,1.163,0,0,1,1.184,1.242v1.058ZM320.2,305.6v-1.3h2.391v-.941H320.2v-1.242h2.641v-1.008h-3.682v5.5h3.757V305.6Z" fill="#fff" fill-rule="evenodd"/>
      <g id="Group_6" data-name="Group 6">
        <path id="Path_32" data-name="Path 32" d="M262.02,300.874c2.853,2.073,1.265,9.174-1.994,11.317.335-3.188.727-8.666-3.1-11.651h0C258.608,300.839,260.645,299.875,262.02,300.874Z" fill="#fff" fill-rule="evenodd"/>
        <path id="Path_33" data-name="Path 33" d="M268.32,309.546c1.09,3.353-4.368,8.164-8.265,7.983,2.145-2.382,5.682-6.583,4.342-11.247h0C265.58,307.512,267.8,307.93,268.32,309.546Z" fill="#fff" fill-rule="evenodd"/>
        <path id="Path_34" data-name="Path 34" d="M268.321,320.264c-1.09,3.354-8.334,4.038-11.379,1.6,3.135-.667,8.466-1.986,10.123-6.548h0C267.3,317.008,268.846,318.648,268.321,320.264Z" fill="#fff" fill-rule="evenodd"/>
        <path id="Path_35" data-name="Path 35" d="M262.02,328.936c-2.852,2.073-9.115-1.632-10.146-5.394,2.928,1.3,8.017,3.37,12.038.654h0C263.108,325.7,263.395,327.937,262.02,328.936Z" fill="#fff" fill-rule="evenodd"/>
        <path id="Path_36" data-name="Path 36" d="M251.826,332.248c-3.526,0-6.415-6.678-5.038-10.327,1.6,2.776,4.505,7.438,9.355,7.6h0C254.608,330.271,253.526,332.248,251.826,332.248Z" fill="#fff" fill-rule="evenodd"/>
        <path id="Path_37" data-name="Path 37" d="M241.632,328.936c-2.852-2.072-1.264-9.173,1.994-11.316-.334,3.188-.727,8.665,3.1,11.65h0C245.045,328.971,243.007,329.935,241.632,328.936Z" fill="#fff" fill-rule="evenodd"/>
        <path id="Path_38" data-name="Path 38" d="M235.332,320.265c-1.09-3.354,4.369-8.165,8.265-7.984-2.145,2.383-5.682,6.584-4.341,11.248h0C238.072,322.3,235.857,321.881,235.332,320.265Z" fill="#fff" fill-rule="evenodd"/>
        <path id="Path_39" data-name="Path 39" d="M235.332,309.546c1.089-3.353,8.333-4.037,11.379-1.6-3.136.666-8.466,1.986-10.123,6.547h0C236.353,312.8,234.807,311.162,235.332,309.546Z" fill="#fff" fill-rule="evenodd"/>
        <path id="Path_40" data-name="Path 40" d="M241.632,300.874c2.853-2.072,9.115,1.632,10.146,5.394-2.928-1.3-8.016-3.37-12.038-.653h0C240.544,304.109,240.257,301.873,241.632,300.874Z" fill="#fff" fill-rule="evenodd"/>
        <path id="Path_41" data-name="Path 41" d="M251.826,297.562c3.526,0,6.415,6.678,5.038,10.328-1.6-2.776-4.505-7.439-9.355-7.605h0C249.045,299.54,250.127,297.562,251.826,297.562Z" fill="#fff" fill-rule="evenodd"/>
      </g>
    </g>
  </g>
</svg>
